<svg width="42" height="42" viewBox="0 0 42 42" fill="none" xmlns="http://www.w3.org/2000/svg">
<path d="M3.31507 14.28L20.3776 23.4675C20.5688 23.5705 20.7825 23.6244 20.9997 23.6244C21.2169 23.6244 21.4306 23.5705 21.6218 23.4675L38.6843 14.28C38.8927 14.1676 39.0667 14.0009 39.1881 13.7975C39.3094 13.5942 39.3734 13.3618 39.3734 13.125C39.3734 12.8883 39.3094 12.6559 39.1881 12.4526C39.0667 12.2492 38.8927 12.0825 38.6843 11.97L21.6218 2.78254C21.4306 2.67961 21.2169 2.62573 20.9997 2.62573C20.7825 2.62573 20.5688 2.67961 20.3776 2.78254L3.31507 11.97C3.10671 12.0825 2.93265 12.2492 2.81134 12.4526C2.69003 12.6559 2.62598 12.8883 2.62598 13.125C2.62598 13.3618 2.69003 13.5942 2.81134 13.7975C2.93265 14.0009 3.10671 14.1676 3.31507 14.28ZM20.9997 5.42854L35.2941 13.125L20.9997 20.8215L6.70526 13.125L20.9997 5.42854Z" fill="#66CABE"/>
<path d="M37.4404 19.845L21 28.6965L4.55966 19.845C4.25449 19.6924 3.9019 19.6646 3.57662 19.7676C3.25133 19.8706 2.97892 20.0961 2.81712 20.3965C2.65533 20.6969 2.61686 21.0485 2.70988 21.3767C2.80289 21.705 3.02008 21.9841 3.31541 22.155L20.3779 31.3425C20.5691 31.4454 20.7829 31.4993 21 31.4993C21.2172 31.4993 21.431 31.4454 21.6222 31.3425L38.6847 22.155C38.98 21.9841 39.1972 21.705 39.2902 21.3767C39.3832 21.0485 39.3447 20.6969 39.1829 20.3965C39.0211 20.0961 38.7487 19.8706 38.4234 19.7676C38.0982 19.6646 37.7456 19.6924 37.4404 19.845Z" fill="#66CABE"/>
<path d="M37.4404 27.72L21 36.5715L4.55966 27.72C4.25449 27.5674 3.9019 27.5396 3.57662 27.6426C3.25133 27.7455 2.97892 27.9711 2.81712 28.2715C2.65533 28.5719 2.61686 28.9235 2.70988 29.2517C2.80289 29.58 3.02008 29.8591 3.31541 30.03L20.3779 39.2175C20.5691 39.3204 20.7829 39.3743 21 39.3743C21.2172 39.3743 21.431 39.3204 21.6222 39.2175L38.6847 30.03C38.8418 29.9514 38.9816 29.8421 39.0957 29.7084C39.2098 29.5748 39.296 29.4196 39.349 29.2521C39.402 29.0846 39.4208 28.9081 39.4044 28.7332C39.3879 28.5582 39.3365 28.3884 39.2532 28.2337C39.1699 28.079 39.0563 27.9426 38.9193 27.8326C38.7823 27.7226 38.6245 27.6412 38.4555 27.5933C38.2864 27.5454 38.1095 27.5319 37.9351 27.5537C37.7607 27.5755 37.5925 27.632 37.4404 27.72Z" fill="#66CABE"/>
</svg>
