<svg width="61" height="60" viewBox="0 0 61 60" fill="none" xmlns="http://www.w3.org/2000/svg">
<path d="M52.1428 42.0042L45.0962 34.9565L46.4869 33.9461C47.848 32.9573 48.4132 31.2178 47.8934 29.6174L46.9437 26.6949C46.8434 26.386 46.8434 26.0594 46.9437 25.7506L47.8934 22.828C48.4133 21.2278 47.848 19.4881 46.4869 18.4994L44.0008 16.693C43.7379 16.5021 43.5459 16.2379 43.4458 15.929L42.4961 13.0064C41.9761 11.4063 40.4965 10.3311 38.814 10.3311H35.7408C35.4161 10.3311 35.1055 10.2302 34.8428 10.0393L32.3567 8.23295C30.9955 7.24413 29.1665 7.24413 27.8052 8.23295L25.319 10.0394C25.0562 10.2303 24.7457 10.3312 24.4209 10.3312H21.3478C19.6654 10.3312 18.1856 11.4063 17.6657 13.0065L16.716 15.9292C16.6157 16.2379 16.4237 16.5021 16.161 16.6931L13.6749 18.4994C12.3137 19.4883 11.7485 21.2279 12.2684 22.828L13.2181 25.7506C13.3184 26.0594 13.3184 26.386 13.2181 26.6948L12.2684 29.6176C11.7485 31.2178 12.3137 32.9574 13.6749 33.9461L15.0655 34.9565L8.01892 42.0041C7.73931 42.2837 7.61966 42.6855 7.70064 43.0726C7.78162 43.4598 8.05244 43.7798 8.42076 43.9239L14.0803 46.1383L16.2947 51.7979C16.4387 52.1662 16.7589 52.4369 17.1461 52.518C17.2259 52.5348 17.3063 52.5428 17.3861 52.5428C17.6936 52.5428 17.9926 52.4217 18.2147 52.1996L26.8772 43.5382L27.8052 44.2124C28.4858 44.7069 29.2833 44.954 30.0809 44.954C30.8783 44.954 31.676 44.7069 32.3565 44.2123L33.2847 43.538L41.9473 52.1996C42.1693 52.4217 42.4683 52.5428 42.7758 52.5428C42.8556 52.5428 42.936 52.5348 43.0158 52.518C43.403 52.437 43.723 52.1662 43.8672 51.7979L46.0815 46.1383L51.7411 43.9239C52.1094 43.7799 52.3801 43.4598 52.4612 43.0726C52.5422 42.6856 52.4224 42.2837 52.1428 42.0042ZM17.8245 49.2754L16.0761 44.8069C15.9571 44.5025 15.7163 44.2618 15.4118 44.1426L10.9433 42.3943L16.7417 36.595L17.6658 39.439C18.1858 41.0392 19.6654 42.1143 21.3479 42.1143H24.4211C24.5884 42.1143 24.7519 42.1416 24.907 42.1937L17.8245 49.2754ZM29.1827 42.3164L26.6966 40.5099C26.0308 40.0263 25.244 39.7706 24.4211 39.7706H21.3479C20.684 39.7706 20.1 39.3464 19.8949 38.7148L18.9452 35.7923C18.7023 35.0444 18.2455 34.402 17.6247 33.9241C17.6033 33.9058 17.5813 33.8888 17.559 33.8724C17.5521 33.8673 17.5458 33.8615 17.5388 33.8565L15.0526 32.05C14.5156 31.6599 14.2924 30.9733 14.4976 30.3419L15.4473 27.4192C15.7016 26.6365 15.7016 25.8092 15.4473 25.0265L14.4976 22.104C14.2924 21.4724 14.5156 20.786 15.0526 20.3956L17.5388 18.5893C18.2047 18.1054 18.6911 17.436 18.9452 16.6536L19.8949 13.7309C20.1 13.0994 20.6841 12.6752 21.3479 12.6752H24.4211C25.2441 12.6752 26.031 12.4195 26.6967 11.9357L29.1827 10.1295C29.7199 9.73928 30.442 9.73917 30.979 10.1295L33.4651 11.936C34.131 12.4197 34.9178 12.6754 35.7408 12.6754H38.814C39.4779 12.6754 40.0617 13.0998 40.2669 13.7312L41.2166 16.6537C41.4708 17.4364 41.9571 18.1058 42.6231 18.5895L45.1093 20.396C45.6464 20.7862 45.8694 21.4727 45.6642 22.1042L44.7145 25.027C44.4604 25.8096 44.4604 26.6369 44.7145 27.4196L45.6642 30.3423C45.8694 30.9738 45.6464 31.6601 45.1092 32.0505L42.6232 33.8567C42.6145 33.863 42.6067 33.8702 42.598 33.8765C42.5782 33.8913 42.5586 33.9064 42.5395 33.9226C41.9175 34.4006 41.4599 35.0437 41.2166 35.7924L40.2669 38.7152C40.0617 39.3467 39.4779 39.7709 38.814 39.7709H35.7408C34.918 39.7709 34.1311 40.0266 33.4651 40.5104L30.9791 42.3166C30.4416 42.7067 29.7198 42.7064 29.1827 42.3164ZM44.7501 44.1426C44.4456 44.2618 44.2049 44.5025 44.0857 44.8069L42.3374 49.2754L35.2547 42.1938C35.4099 42.1416 35.5733 42.1144 35.7407 42.1144H38.8139C40.4963 42.1144 41.976 41.0394 42.4959 39.4393L43.4201 36.595L49.2186 42.3944L44.7501 44.1426Z" fill="#66CABE"/>
<path d="M35.5006 34.9146C35.7435 34.9146 35.9854 34.839 36.1895 34.6908C36.5504 34.4286 36.7312 33.9844 36.6558 33.5447L35.7249 28.1169L39.6684 24.2729C39.9878 23.9616 40.1027 23.4959 39.9648 23.0716C39.8269 22.6474 39.4602 22.3383 39.0189 22.2741L33.569 21.4821L31.1318 16.5437C30.9344 16.1437 30.527 15.8905 30.0809 15.8905C29.6348 15.8905 29.2274 16.1437 29.0301 16.5437L26.5929 21.4821L21.1431 22.2741C20.7017 22.3382 20.335 22.6474 20.1971 23.0716C20.0591 23.4959 20.1742 23.9616 20.4937 24.2729L24.4371 28.1169L23.5062 33.5447C23.4307 33.9844 23.6114 34.4286 23.9724 34.6908C24.3332 34.953 24.8117 34.9875 25.2065 34.7801L30.0809 32.2174L34.9554 34.78C35.1269 34.8701 35.314 34.9146 35.5006 34.9146ZM30.6262 29.8562C30.4554 29.7664 30.2682 29.7217 30.0809 29.7217C29.8936 29.7217 29.7062 29.7666 29.5356 29.8562L26.2176 31.6007L26.8513 27.9059C26.9166 27.5257 26.7905 27.1378 26.5143 26.8685L23.83 24.2519L27.5397 23.7128C27.9214 23.6573 28.2514 23.4176 28.422 23.0718L30.0809 19.7103L31.7398 23.0719C31.9105 23.4177 32.2404 23.6575 32.6221 23.7129L36.3319 24.2521L33.6475 26.8686C33.3714 27.1378 33.2453 27.5257 33.3105 27.906L33.9442 31.6008L30.6262 29.8562Z" fill="#66CABE"/>
</svg>
