<svg width="41" height="40" viewBox="0 0 41 40" fill="none" xmlns="http://www.w3.org/2000/svg">
<path d="M33.9039 31.217L28.4988 25.8118C30.1369 23.6674 31.0353 21.0662 31.0357 18.3215C31.0357 15.0138 29.7474 11.9038 27.4082 9.56498C25.0693 7.22611 21.9598 5.93787 18.6517 5.93787C15.344 5.93787 12.234 7.22611 9.89514 9.56498C5.06685 14.3937 5.06685 22.2501 9.89514 27.078C12.234 29.4173 15.344 30.7055 18.6517 30.7055C21.3964 30.7052 23.9975 29.8067 26.142 28.1686L31.5472 33.5738C31.8723 33.8993 32.2991 34.0621 32.7255 34.0621C33.152 34.0621 33.5788 33.8993 33.9039 33.5738C34.555 32.9231 34.555 31.8676 33.9039 31.217ZM12.2519 24.7212C8.72327 21.1926 8.72367 15.4508 12.2519 11.9218C13.9613 10.2128 16.2343 9.2712 18.6517 9.2712C21.0695 9.2712 23.342 10.2128 25.0514 11.9218C26.7608 13.6311 27.7024 15.9041 27.7024 18.3215C27.7024 20.7393 26.7608 23.0118 25.0514 24.7212C23.342 26.4306 21.0695 27.3722 18.6517 27.3722C16.2343 27.3722 13.9613 26.4306 12.2519 24.7212Z" fill="#66CABE"/>
</svg>
