<svg width="48" height="47" viewBox="0 0 48 47" fill="none" xmlns="http://www.w3.org/2000/svg">
<g clip-path="url(#clip0_9667_3268)">
<path d="M9.42238 5.07373C7.71 5.07373 6.31689 6.46638 6.31689 8.17803C6.31689 9.88967 7.71 11.2823 9.42238 11.2823C11.1361 11.2823 12.5304 9.88967 12.5304 8.17803C12.5304 6.46638 11.1361 5.07373 9.42238 5.07373ZM9.42238 9.43096C8.73088 9.43096 8.16835 8.86889 8.16835 8.17803C8.16835 7.48716 8.73088 6.92518 9.42238 6.92518C10.1153 6.92518 10.6791 7.48725 10.6791 8.17812C10.6791 8.86898 10.1153 9.43096 9.42238 9.43096Z" fill="#66CABE"/>
<path d="M36.576 5.07373H28.3667C26.6543 5.07373 25.2612 6.46638 25.2612 8.17803C25.2612 9.88967 26.6543 11.2823 28.3667 11.2823H36.576C38.2884 11.2823 39.6815 9.88967 39.6815 8.17803C39.6815 6.46638 38.2884 5.07373 36.576 5.07373ZM36.576 9.43096H28.3667C27.6752 9.43096 27.1127 8.86889 27.1127 8.17803C27.1127 7.48716 27.6753 6.92509 28.3667 6.92509H36.576C37.2675 6.92509 37.8301 7.48716 37.8301 8.17803C37.8301 8.86889 37.2675 9.43096 36.576 9.43096Z" fill="#66CABE"/>
<path d="M17.4702 5.07373C15.7579 5.07373 14.3647 6.46638 14.3647 8.17803C14.3647 9.88967 15.7579 11.2823 17.4702 11.2823C19.184 11.2823 20.5783 9.88967 20.5783 8.17803C20.5783 6.46638 19.184 5.07373 17.4702 5.07373ZM17.4702 9.43096C16.7787 9.43096 16.2162 8.86889 16.2162 8.17803C16.2162 7.48716 16.7788 6.92509 17.4702 6.92509C18.1631 6.92509 18.7269 7.48716 18.7269 8.17803C18.7269 8.86889 18.1631 9.43096 17.4702 9.43096Z" fill="#66CABE"/>
<path d="M15.9605 20.4197C15.4634 20.3006 14.9637 20.6075 14.8449 21.1049L13.0085 28.7899C12.8897 29.2872 13.1964 29.7866 13.6936 29.9054C13.766 29.9227 13.8384 29.931 13.9096 29.931C14.3281 29.931 14.7076 29.6452 14.8091 29.2203L16.6456 21.5352C16.7645 21.0379 16.4577 20.5386 15.9605 20.4197Z" fill="#66CABE"/>
<path d="M19.3594 29.0022C19.5358 29.1593 19.7558 29.2366 19.9748 29.2366C20.2297 29.2366 20.4835 29.132 20.6665 28.9266L23.2623 26.0126C23.6906 25.5358 23.6906 24.7892 23.265 24.3154L20.6664 21.3984C20.3262 21.0165 19.741 20.9829 19.3594 21.3228C18.9775 21.6629 18.9437 22.2481 19.2838 22.6298L21.5399 25.1624L19.2838 27.6951C18.9438 28.077 18.9776 28.6622 19.3594 29.0022Z" fill="#66CABE"/>
<path d="M10.2954 21.3229C9.91351 20.9828 9.32849 21.0169 8.98838 21.3985L6.39283 24.3122C5.96395 24.7891 5.96395 25.5361 6.38989 26.0097L8.98847 28.9267C9.17142 29.1322 9.42515 29.2367 9.68016 29.2367C9.89919 29.2367 10.1192 29.1594 10.2956 29.0023C10.6774 28.6622 10.7112 28.077 10.3711 27.6953L8.11503 25.1627L10.3711 22.63C10.711 22.2481 10.6773 21.6629 10.2954 21.3229Z" fill="#66CABE"/>
<path d="M45.7581 31.168H45.4144C45.2344 30.5849 45.0011 30.022 44.7165 29.4841L44.9618 29.2379C45.3535 28.8486 45.5697 28.3288 45.5705 27.7742C45.5713 27.2182 45.3559 26.6963 44.9637 26.3042L44.4858 25.8266V6.10862C44.4858 3.34747 42.5374 1.1012 40.1422 1.1012H5.17714C2.78198 1.1012 0.833496 3.34747 0.833496 6.10862V31.9818C0.833496 34.743 2.78198 36.9893 5.17714 36.9893H10.6084C11.1196 36.9893 11.5341 36.5748 11.5341 36.0636C11.5341 35.5524 11.1196 35.1379 10.6084 35.1379H5.17714C3.82626 35.1379 2.68495 33.6926 2.68495 31.9819V15.1873H42.6343V24.5419C42.5288 24.5256 42.422 24.515 42.3132 24.515C42.3121 24.515 42.311 24.515 42.31 24.515C41.7553 24.5159 41.2355 24.7318 40.8492 25.1202L40.599 25.3694C40.0498 25.0792 39.4778 24.8432 38.888 24.663V24.3332C38.888 23.1891 37.957 22.2584 36.8125 22.2584H35.1373C33.9944 22.2584 33.0646 23.1891 33.0646 24.3332V24.6856C32.4859 24.8674 31.9271 25.1014 31.393 25.3856L31.1533 25.1466C30.7639 24.7552 30.2439 24.5391 29.6893 24.5383C29.6883 24.5383 29.6873 24.5383 29.6862 24.5383C29.1314 24.5383 28.6106 24.7536 28.2193 25.1446L27.0357 26.3276C26.6436 26.7196 26.4281 27.2416 26.4289 27.7975C26.4298 28.3521 26.6459 28.872 27.0346 29.2582L27.2903 29.5146C27.0128 30.0443 26.7848 30.5968 26.6085 31.1678H26.2569C25.1139 31.1678 24.184 32.0973 24.184 33.24V34.9169C24.184 34.9914 24.1882 35.065 24.1959 35.1376H18.8097C18.2985 35.1376 17.884 35.552 17.884 36.0632C17.884 36.5744 18.2985 36.9889 18.8097 36.9889H26.2568H26.612C26.791 37.5653 27.0224 38.1222 27.3047 38.6554L27.0545 38.9044C26.2492 39.7141 26.2499 41.0285 27.0565 41.8344L28.2406 43.0181C28.63 43.4095 29.15 43.6255 29.7046 43.6264H29.7077C30.2625 43.6264 30.7833 43.4111 31.1747 43.02L31.4226 42.7722C31.9605 43.0558 32.5198 43.2875 33.0956 43.4655V43.8237C33.0956 44.9679 34.0254 45.8986 35.1685 45.8986H36.8462C37.9892 45.8986 38.919 44.9679 38.919 43.8237V43.4677C39.5002 43.2884 40.0618 43.0558 40.5991 42.7721L40.8459 43.018C41.2352 43.4095 41.7551 43.6255 42.3097 43.6264H42.3129C42.8676 43.6264 43.3885 43.4111 43.7806 43.0193L44.9615 41.8363C45.3532 41.447 45.5694 40.9272 45.5702 40.3725C45.5711 39.8166 45.3556 39.2947 44.9634 38.9026L44.7163 38.6557C44.9981 38.1221 45.2293 37.5648 45.408 36.989H45.7579C46.9023 36.989 47.8333 36.0595 47.8333 34.9169V33.24C47.8335 32.0975 46.9025 31.168 45.7581 31.168ZM2.68495 13.3359V6.10862C2.68495 4.39799 3.82626 2.95265 5.17714 2.95265H40.1422C41.4931 2.95265 42.6344 4.39799 42.6344 6.10862V13.336H2.68495V13.3359ZM45.982 34.9171C45.982 35.0346 45.8774 35.1377 45.758 35.1377H44.6994C44.2677 35.1377 43.8934 35.436 43.797 35.8567C43.5971 36.7292 43.2537 37.5567 42.7762 38.3163C42.5463 38.6821 42.6 39.1583 42.9057 39.4638L43.6547 40.2124C43.7107 40.2684 43.719 40.3352 43.719 40.3701C43.7189 40.4117 43.708 40.4722 43.654 40.5258L42.4713 41.7107C42.4152 41.7667 42.3483 41.7751 42.313 41.7751C42.3129 41.7751 42.3128 41.7751 42.3128 41.7751C42.2708 41.7751 42.2101 41.7642 42.1559 41.7096L41.404 40.9609C41.0983 40.6564 40.6229 40.6036 40.2579 40.8331C39.4971 41.3116 38.6662 41.6556 37.788 41.8554C37.3667 41.9514 37.0677 42.326 37.0677 42.7582V43.824C37.0677 43.943 36.9643 44.0474 36.8464 44.0474H35.1686C35.0507 44.0474 34.9472 43.9431 34.9472 43.824V42.7555C34.9472 42.3229 34.6476 41.948 34.2257 41.8526C33.3587 41.6565 32.5292 41.3131 31.7605 40.8321C31.609 40.7373 31.4388 40.691 31.2697 40.691C31.0305 40.691 30.7935 40.7834 30.615 40.9621L29.866 41.7107C29.8099 41.7667 29.743 41.7751 29.7077 41.7751C29.7077 41.7751 29.7076 41.7751 29.7075 41.7751C29.6655 41.7751 29.6047 41.7642 29.5516 41.7108L28.3655 40.5252C28.2824 40.4422 28.2833 40.2952 28.3644 40.2136L29.1161 39.4649C29.4233 39.1591 29.477 38.6812 29.2455 38.3147C28.7674 37.5576 28.4235 36.7307 28.2234 35.857C28.127 35.4363 27.7527 35.1379 27.3209 35.1379H26.257C26.137 35.1379 26.0356 35.0368 26.0356 34.9172V33.2404C26.0356 33.1208 26.137 33.0196 26.257 33.0196H27.3183C27.7504 33.0196 28.1251 32.7206 28.221 32.2994C28.4185 31.4312 28.758 30.6077 29.2299 29.8515C29.4578 29.4864 29.404 29.0125 29.1 28.7077L28.3427 27.9482C28.2913 27.8972 28.2805 27.8367 28.2804 27.795C28.2804 27.7601 28.2887 27.6933 28.3447 27.6374L29.5281 26.4545C29.5842 26.3985 29.6511 26.39 29.6864 26.39H29.6866C29.7286 26.3901 29.7893 26.401 29.8436 26.4556L30.5901 27.1991C30.8968 27.5045 31.3739 27.5569 31.739 27.3252C32.4954 26.8456 33.3239 26.4983 34.2013 26.2929C34.6199 26.195 34.9159 25.8215 34.9159 25.3916V24.3335C34.9159 24.2124 35.0173 24.1101 35.1372 24.1101H36.8125C36.9339 24.1101 37.0365 24.2124 37.0365 24.3335V25.376C37.0365 25.8097 37.3376 26.1852 37.7611 26.2795C38.6419 26.4757 39.4822 26.8221 40.2587 27.3093C40.6236 27.5381 41.0984 27.4852 41.4039 27.181L42.1588 26.4291C42.21 26.3776 42.2707 26.3668 42.3126 26.3667H42.3129C42.3482 26.3667 42.4151 26.3752 42.4711 26.4312L43.6546 27.614C43.7106 27.67 43.7189 27.7368 43.7189 27.7717C43.7188 27.8134 43.708 27.8738 43.6535 27.9279L42.9044 28.6793C42.5993 28.9852 42.5465 29.4615 42.777 29.8268C43.2562 30.5866 43.601 31.4187 43.8019 32.2997C43.8979 32.7209 44.2724 33.0197 44.7045 33.0197H45.758C45.8773 33.0197 45.982 33.123 45.982 33.2405V34.9171Z" fill="#66CABE"/>
<path d="M36.0093 28.425C32.8899 28.425 30.3521 30.9618 30.3521 34.0798C30.3521 37.1964 32.8899 39.732 36.0093 39.732C39.1274 39.732 41.664 37.1965 41.664 34.0798C41.664 30.9619 39.1274 28.425 36.0093 28.425ZM36.0093 37.8806C33.9108 37.8806 32.2035 36.1755 32.2035 34.0798C32.2035 31.9826 33.9108 30.2765 36.0093 30.2765C38.1064 30.2765 39.8125 31.9826 39.8125 34.0798C39.8125 36.1755 38.1063 37.8806 36.0093 37.8806Z" fill="#66CABE"/>
<path d="M14.7363 35.1378H14.7182C14.2069 35.1378 13.7925 35.5523 13.7925 36.0635C13.7925 36.5747 14.2069 36.9892 14.7182 36.9892H14.7363C15.2476 36.9892 15.662 36.5747 15.662 36.0635C15.662 35.5523 15.2476 35.1378 14.7363 35.1378Z" fill="#66CABE"/>
</g>
<defs>
<clipPath id="clip0_9667_3268">
<rect width="47" height="47" fill="white" transform="translate(0.833496)"/>
</clipPath>
</defs>
</svg>
