<svg width="55" height="54" viewBox="0 0 55 54" fill="none" xmlns="http://www.w3.org/2000/svg">
<path d="M31.8853 5.0625H33.5728V6.75H31.8853V5.0625Z" fill="#66CABE"/>
<path d="M18.3853 27.8438H21.7603V29.5312H18.3853V27.8438Z" fill="#66CABE"/>
<path d="M36.9478 1.6875H18.3853C17.043 1.68884 15.7561 2.22264 14.807 3.17175C13.8579 4.12086 13.3241 5.40775 13.3228 6.75V47.25C13.3241 48.5922 13.8579 49.8791 14.807 50.8282C15.7561 51.7774 17.043 52.3112 18.3853 52.3125H36.9478C38.29 52.3112 39.5769 51.7774 40.526 50.8282C41.4751 49.8791 42.0089 48.5922 42.0103 47.25V6.75C42.0089 5.40775 41.4751 4.12086 40.526 3.17175C39.5769 2.22264 38.29 1.68884 36.9478 1.6875ZM36.9478 50.625H18.3853C17.4901 50.625 16.6317 50.2694 15.9988 49.6365C15.3658 49.0035 15.0103 48.1451 15.0103 47.25V10.125H38.6353V8.4375H15.0103V6.75C15.0103 5.85489 15.3658 4.99645 15.9988 4.36351C16.6317 3.73058 17.4901 3.375 18.3853 3.375H36.9478C37.8429 3.375 38.7013 3.73058 39.3342 4.36351C39.9672 4.99645 40.3228 5.85489 40.3228 6.75V42.1875H16.6978V43.875H40.3228V47.25C40.3228 48.1451 39.9672 49.0035 39.3342 49.6365C38.7013 50.2694 37.8429 50.625 36.9478 50.625Z" fill="#66CABE"/>
<path d="M27.6665 44.7188C27.1659 44.7188 26.6765 44.8672 26.2602 45.1453C25.844 45.4235 25.5195 45.8188 25.3279 46.2813C25.1364 46.7439 25.0862 47.2528 25.1839 47.7438C25.2816 48.2348 25.5226 48.6859 25.8766 49.0399C26.2306 49.3939 26.6817 49.6349 27.1727 49.7326C27.6637 49.8303 28.1726 49.7802 28.6352 49.5886C29.0977 49.397 29.493 49.0725 29.7712 48.6563C30.0493 48.24 30.1978 47.7506 30.1978 47.25C30.1978 46.5787 29.9311 45.9348 29.4564 45.4601C28.9817 44.9854 28.3378 44.7188 27.6665 44.7188ZM27.6665 48.0938C27.4996 48.0938 27.3365 48.0443 27.1977 47.9516C27.059 47.8588 26.9508 47.7271 26.887 47.5729C26.8231 47.4187 26.8064 47.2491 26.839 47.0854C26.8715 46.9217 26.9519 46.7714 27.0699 46.6534C27.1879 46.5354 27.3382 46.455 27.5019 46.4225C27.6656 46.3899 27.8352 46.4066 27.9894 46.4705C28.1436 46.5343 28.2753 46.6425 28.3681 46.7812C28.4608 46.92 28.5103 47.0831 28.5103 47.25C28.5103 47.4738 28.4214 47.6884 28.2631 47.8466C28.1049 48.0049 27.8903 48.0938 27.6665 48.0938Z" fill="#66CABE"/>
<path d="M25.1353 5.0625H30.1978V6.75H25.1353V5.0625Z" fill="#66CABE"/>
<path d="M24.044 22.1847L21.2655 19.4062L24.044 16.6278L22.8509 15.4347L18.8794 19.4062L22.8509 23.3778L24.044 22.1847Z" fill="#66CABE"/>
<path d="M32.4816 23.3778L36.4532 19.4062L32.4816 15.4347L31.2886 16.6278L34.067 19.4062L31.2886 22.1847L32.4816 23.3778Z" fill="#66CABE"/>
<path d="M24.4595 22.9568L29.0275 15.0449L30.4889 15.8887L25.9208 23.8005L24.4595 22.9568Z" fill="#66CABE"/>
<path d="M23.4478 27.8438H36.9478V29.5312H23.4478V27.8438Z" fill="#66CABE"/>
<path d="M18.3853 31.2188H36.9478V32.9062H18.3853V31.2188Z" fill="#66CABE"/>
<path d="M18.3853 34.5938H36.9478V36.2812H18.3853V34.5938Z" fill="#66CABE"/>
</svg>
