<svg width="40" height="40" viewBox="0 0 40 40" fill="none" xmlns="http://www.w3.org/2000/svg">
<g clip-path="url(#clip0_9757_3792)">
<path d="M20.0004 23.1609C21.7459 23.1609 23.1609 21.7459 23.1609 20.0004C23.1609 18.2549 21.7459 16.8398 20.0004 16.8398C18.2549 16.8398 16.8398 18.2549 16.8398 20.0004C16.8398 21.7459 18.2549 23.1609 20.0004 23.1609Z" fill="#E5F6F4"/>
<path d="M24.0413 12.0127H15.9571C14.9102 12.0127 13.9062 12.4286 13.1659 13.1689C12.4256 13.9091 12.0098 14.9132 12.0098 15.9601V24.0416C12.0098 25.0886 12.4256 26.0926 13.1659 26.8329C13.9062 27.5731 14.9102 27.989 15.9571 27.989H24.0413C25.0883 27.989 26.0923 27.5731 26.8326 26.8329C27.5728 26.0926 27.9887 25.0886 27.9887 24.0416V15.9574C27.988 14.911 27.5718 13.9076 26.8316 13.1679C26.0914 12.4282 25.0878 12.0127 24.0413 12.0127V12.0127ZM19.9992 25.1732C18.9759 25.1737 17.9753 24.8708 17.1242 24.3026C16.273 23.7344 15.6095 22.9266 15.2175 21.9812C14.8255 21.0359 14.7227 19.9956 14.922 18.9918C15.1213 17.988 15.6139 17.0659 16.3373 16.3421C17.0608 15.6183 17.9826 15.1253 18.9863 14.9255C19.99 14.7256 21.0304 14.8279 21.9759 15.2194C22.9214 15.6109 23.7296 16.2741 24.2982 17.1249C24.8668 17.9758 25.1703 18.9762 25.1703 19.9995C25.1689 21.3708 24.6237 22.6855 23.6543 23.6554C22.685 24.6253 21.3705 25.1711 19.9992 25.1732ZM25.2019 16.1048C24.9487 16.1053 24.7011 16.0307 24.4903 15.8904C24.2796 15.75 24.1153 15.5503 24.0182 15.3165C23.921 15.0827 23.8955 14.8253 23.9447 14.577C23.994 14.3287 24.1159 14.1005 24.2949 13.9215C24.4739 13.7425 24.702 13.6206 24.9504 13.5714C25.1987 13.5221 25.4561 13.5476 25.6899 13.6448C25.9237 13.7419 26.1234 13.9062 26.2637 14.117C26.4041 14.3277 26.4787 14.5753 26.4782 14.8285C26.4775 15.1668 26.3428 15.491 26.1036 15.7302C25.8644 15.9694 25.5402 16.1041 25.2019 16.1048V16.1048Z" fill="#E5F6F4"/>
<path d="M20 0C16.0444 0 12.1776 1.17298 8.8886 3.37061C5.59962 5.56824 3.03617 8.69181 1.52242 12.3463C0.00866564 16.0009 -0.387401 20.0222 0.384303 23.9018C1.15601 27.7814 3.06082 31.3451 5.85787 34.1421C8.65492 36.9392 12.2186 38.844 16.0982 39.6157C19.9778 40.3874 23.9992 39.9913 27.6537 38.4776C31.3082 36.9638 34.4318 34.4004 36.6294 31.1114C38.827 27.8224 40 23.9556 40 20C40 14.6957 37.8929 9.60859 34.1421 5.85786C30.3914 2.10714 25.3043 0 20 0V0ZM30 24.0421C29.9986 25.6218 29.3705 27.1364 28.2534 28.2534C27.1364 29.3705 25.6218 29.9986 24.0421 30H15.9579C14.3784 29.9979 12.8642 29.3695 11.7473 28.2527C10.6305 27.1358 10.0021 25.6216 10 24.0421V15.9579C10.0021 14.3784 10.6305 12.8642 11.7473 11.7473C12.8642 10.6305 14.3784 10.0021 15.9579 10H24.0421C25.6216 10.0021 27.1358 10.6305 28.2527 11.7473C29.3695 12.8642 29.9979 14.3784 30 15.9579V24.0421Z" fill="#E5F6F4"/>
</g>
<defs>
<clipPath id="clip0_9757_3792">
<rect width="40" height="40" fill="white"/>
</clipPath>
</defs>
</svg>
