<svg width="40" height="40" viewBox="0 0 40 40" fill="none" xmlns="http://www.w3.org/2000/svg">
<g clip-path="url(#clip0_9757_3809)">
<path d="M20 0C16.0444 0 12.1776 1.17298 8.8886 3.37061C5.59962 5.56824 3.03617 8.69181 1.52242 12.3463C0.00866564 16.0009 -0.387401 20.0222 0.384303 23.9018C1.15601 27.7814 3.06082 31.3451 5.85787 34.1421C8.65492 36.9392 12.2186 38.844 16.0982 39.6157C19.9778 40.3874 23.9992 39.9913 27.6537 38.4776C31.3082 36.9638 34.4318 34.4004 36.6294 31.1114C38.827 27.8224 40 23.9556 40 20C40 14.6957 37.8929 9.60859 34.1421 5.85786C30.3914 2.10714 25.3043 0 20 0V0ZM14.9105 29.3237C14.9105 29.5031 14.8393 29.6751 14.7124 29.8019C14.5856 29.9287 14.4136 30 14.2342 30H11.3605C11.2716 30.0003 11.1835 29.9831 11.1013 29.9492C11.0191 29.9154 10.9444 29.8656 10.8815 29.8027C10.8187 29.7398 10.7689 29.6651 10.735 29.5829C10.7011 29.5007 10.6839 29.4126 10.6842 29.3237V17.2737C10.6842 17.0943 10.7555 16.9223 10.8823 16.7955C11.0091 16.6686 11.1812 16.5974 11.3605 16.5974H14.2342C14.4136 16.5974 14.5856 16.6686 14.7124 16.7955C14.8393 16.9223 14.9105 17.0943 14.9105 17.2737V29.3237ZM12.8053 15.4632C12.2647 15.4652 11.7356 15.3069 11.2851 15.0081C10.8346 14.7093 10.4828 14.2836 10.2744 13.7848C10.0659 13.286 10.0102 12.7366 10.1142 12.2061C10.2182 11.6756 10.4772 11.1879 10.8586 10.8047C11.2399 10.4216 11.7264 10.1602 12.2563 10.0536C12.7863 9.94705 13.336 10.0002 13.8358 10.2062C14.3356 10.4122 14.763 10.7619 15.064 11.211C15.3649 11.6601 15.5258 12.1884 15.5263 12.7289C15.5267 13.0877 15.4564 13.4429 15.3194 13.7745C15.1824 14.106 14.9815 14.4073 14.7281 14.6612C14.4747 14.9151 14.1738 15.1166 13.8425 15.2542C13.5112 15.3918 13.1561 15.4628 12.7974 15.4632H12.8053ZM29.9421 29.3789C29.9421 29.5437 29.8767 29.7016 29.7602 29.8181C29.6437 29.9346 29.4858 30 29.3211 30H26.229C26.0642 30 25.9063 29.9346 25.7898 29.8181C25.6733 29.7016 25.6079 29.5437 25.6079 29.3789V23.7263C25.6079 22.8816 25.8526 20.0421 23.4026 20.0421C21.5026 20.0421 21.1158 21.9947 21.0342 22.8711V29.3921C21.0308 29.5536 20.9646 29.7074 20.8496 29.8209C20.7346 29.9344 20.58 29.9987 20.4184 30H17.4342C17.3526 30.0003 17.2716 29.9845 17.1961 29.9534C17.1206 29.9223 17.052 29.8766 16.9943 29.8189C16.9366 29.7611 16.8908 29.6925 16.8597 29.617C16.8286 29.5415 16.8128 29.4606 16.8132 29.3789V17.2211C16.8128 17.1393 16.8286 17.0582 16.8597 16.9826C16.8907 16.9069 16.9364 16.8382 16.9941 16.7802C17.0518 16.7223 17.1204 16.6763 17.1959 16.6449C17.2715 16.6135 17.3524 16.5974 17.4342 16.5974H20.4184C20.5012 16.596 20.5834 16.6111 20.6603 16.6418C20.7372 16.6725 20.8072 16.7182 20.8663 16.7763C20.9253 16.8343 20.9722 16.9036 21.0042 16.9799C21.0362 17.0563 21.0527 17.1383 21.0526 17.2211V18.2737C21.7579 17.2211 22.8053 16.3974 25.0342 16.3974C29.9763 16.3974 29.9474 21.0132 29.9474 23.5474L29.9421 29.3789Z" fill="#E5F6F4"/>
</g>
<defs>
<clipPath id="clip0_9757_3809">
<rect width="40" height="40" fill="white"/>
</clipPath>
</defs>
</svg>
