<svg width="40" height="40" viewBox="0 0 40 40" fill="none" xmlns="http://www.w3.org/2000/svg">
<path d="M20 0C16.0444 0 12.1776 1.17298 8.8886 3.37061C5.59962 5.56824 3.03617 8.69181 1.52242 12.3463C0.00866564 16.0009 -0.387401 20.0222 0.384303 23.9018C1.15601 27.7814 3.06082 31.3451 5.85787 34.1421C8.65492 36.9392 12.2186 38.844 16.0982 39.6157C19.9778 40.3874 23.9992 39.9913 27.6537 38.4776C31.3082 36.9638 34.4318 34.4004 36.6294 31.1114C38.827 27.8224 40 23.9556 40 20C40 14.6957 37.8929 9.60859 34.1421 5.85786C30.3914 2.10714 25.3043 0 20 0V0ZM29.9605 13.9474C29.4878 14.6575 28.9102 15.2919 28.2474 15.8289C28.1638 15.8986 28.0968 15.986 28.0513 16.0848C28.0058 16.1835 27.9829 16.2912 27.9842 16.4V16.4658C27.9765 17.892 27.7145 19.3053 27.2105 20.6395C26.6912 22.0398 25.9197 23.3331 24.9342 24.4553C23.6099 25.9629 21.9062 27.0887 20 27.7158C18.7475 28.1223 17.4379 28.3258 16.1211 28.3184C14.0319 28.3182 11.9801 27.7652 10.1737 26.7158C10.109 26.679 10.058 26.6221 10.0286 26.5537C9.99911 26.4853 9.99279 26.4092 10.0105 26.3368C10.0288 26.2657 10.0703 26.2027 10.1284 26.1578C10.1866 26.113 10.2581 26.0889 10.3316 26.0895H10.8316C12.419 26.0923 13.9712 25.6213 15.2895 24.7368C14.5042 24.6086 13.7694 24.2664 13.1659 23.7479C12.5624 23.2293 12.1134 22.5544 11.8684 21.7974C11.8559 21.7595 11.8536 21.7189 11.8618 21.6798C11.8701 21.6408 11.8885 21.6046 11.9152 21.5749C11.9419 21.5452 11.976 21.5232 12.014 21.5109C12.052 21.4987 12.0926 21.4967 12.1316 21.5053C12.3711 21.5503 12.6142 21.5732 12.8579 21.5737H12.95C12.1908 21.2253 11.5489 20.6642 11.1019 19.9585C10.6549 19.2528 10.4221 18.4327 10.4316 17.5974C10.4319 17.5583 10.4422 17.5199 10.4617 17.4861C10.4812 17.4522 10.5092 17.4239 10.5428 17.4041C10.5765 17.3842 10.6147 17.3734 10.6538 17.3727C10.6928 17.3719 10.7314 17.3814 10.7658 17.4C11.0745 17.5724 11.4058 17.7008 11.75 17.7816C11.0702 17.1086 10.633 16.2291 10.5068 15.2809C10.3806 14.3327 10.5726 13.3695 11.0526 12.5421C11.0711 12.5105 11.0969 12.4838 11.1279 12.4644C11.1589 12.4449 11.1941 12.4333 11.2306 12.4304C11.2671 12.4276 11.3037 12.4336 11.3373 12.448C11.371 12.4624 11.4006 12.4848 11.4237 12.5132C12.3751 13.6887 13.5525 14.6617 14.8864 15.3745C16.2202 16.0873 17.6834 16.5255 19.1895 16.6632H19.2105C19.2327 16.6625 19.2544 16.6574 19.2745 16.6481C19.2946 16.6387 19.3126 16.6254 19.3274 16.6089C19.3421 16.5924 19.3534 16.5731 19.3604 16.5521C19.3675 16.5311 19.3702 16.5089 19.3684 16.4868C19.3098 15.9587 19.3437 15.4244 19.4684 14.9079C19.6382 14.2058 19.9868 13.5596 20.4802 13.0321C20.9736 12.5046 21.5951 12.1137 22.2842 11.8974C22.7264 11.7592 23.1868 11.6883 23.65 11.6868C24.7003 11.6856 25.7149 12.0684 26.5026 12.7632C26.6047 12.8545 26.7368 12.905 26.8737 12.9053C26.9181 12.9043 26.9623 12.8981 27.0053 12.8868C27.745 12.6996 28.4539 12.4071 29.1105 12.0184C29.1498 11.9942 29.1956 11.9827 29.2416 11.9855C29.2876 11.9883 29.3317 12.0053 29.3677 12.0341C29.4037 12.0629 29.4299 12.1022 29.4428 12.1465C29.4556 12.1908 29.4545 12.238 29.4395 12.2816C29.2205 12.9705 28.8302 13.5925 28.3053 14.0895C28.7785 13.9779 29.2402 13.822 29.6842 13.6237C29.7278 13.6073 29.7753 13.6048 29.8203 13.6164C29.8653 13.628 29.9057 13.6532 29.9359 13.6886C29.9661 13.724 29.9847 13.7678 29.9891 13.8141C29.9935 13.8604 29.9835 13.9069 29.9605 13.9474Z" fill="#E5F6F4"/>
</svg>
