<svg width="40" height="40" viewBox="0 0 40 40" fill="none" xmlns="http://www.w3.org/2000/svg">
<g clip-path="url(#clip0_9757_3804)">
<path d="M25.526 14.4732L25.4865 14.4337C24.1784 13.1326 22.4498 12.3397 20.6103 12.1971C18.7708 12.0544 16.9407 12.5714 15.4476 13.6553C13.9546 14.7392 12.8962 16.3193 12.4622 18.1125C12.0281 19.9057 12.2466 21.7949 13.0786 23.4416L13.4207 24.1153L12.7812 27.2153V27.2548L15.8523 26.5258L16.5523 26.8732C18.0092 27.5964 19.6563 27.8441 21.2615 27.5817C22.8666 27.3192 24.349 26.5596 25.4997 25.4101C26.9443 23.9584 27.7576 21.9951 27.7625 19.947C27.7674 17.899 26.9637 15.9318 25.526 14.4732ZM25.2154 23.1574C24.8391 23.7495 24.2418 24.4732 23.497 24.6548C22.1812 24.9732 20.1786 24.6548 17.6707 22.3364L17.6391 22.3074C15.4576 20.2706 14.8786 18.5732 15.0076 17.2285C15.0839 16.4653 15.7207 15.7758 16.2576 15.3232C16.3427 15.2507 16.4437 15.1992 16.5524 15.1729C16.6611 15.1467 16.7745 15.1463 16.8833 15.1719C16.9922 15.1975 17.0935 15.2484 17.1791 15.3204C17.2647 15.3924 17.3321 15.4835 17.376 15.5864L18.1839 17.4285C18.2366 17.546 18.2564 17.6757 18.2411 17.8037C18.2258 17.9316 18.176 18.053 18.097 18.1548L17.6865 18.6811C17.6012 18.7904 17.5503 18.9226 17.5405 19.0608C17.5307 19.1991 17.5622 19.3372 17.6312 19.4574C18.0214 20.0312 18.488 20.5492 19.0181 20.9969C19.5872 21.5477 20.2346 22.0114 20.9391 22.3732C21.0675 22.4253 21.2084 22.4379 21.3439 22.4093C21.4795 22.3807 21.6033 22.3122 21.6997 22.2127L22.1707 21.7364C22.2586 21.6356 22.373 21.5615 22.501 21.5224C22.6289 21.4833 22.7652 21.4809 22.8944 21.5153L24.8154 22.068C24.9222 22.0992 25.0203 22.1548 25.1019 22.2305C25.1835 22.3061 25.2465 22.3996 25.2858 22.5037C25.3251 22.6079 25.3396 22.7197 25.3284 22.8304C25.3171 22.9411 25.2802 23.0476 25.2207 23.1416L25.2154 23.1574Z" fill="#E5F6F4"/>
<path d="M20 0C16.0444 0 12.1776 1.17298 8.8886 3.37061C5.59962 5.56824 3.03617 8.69181 1.52242 12.3463C0.00866564 16.0009 -0.387401 20.0222 0.384303 23.9018C1.15601 27.7814 3.06082 31.3451 5.85787 34.1421C8.65492 36.9392 12.2186 38.844 16.0982 39.6157C19.9778 40.3874 23.9992 39.9913 27.6537 38.4776C31.3082 36.9638 34.4318 34.4004 36.6294 31.1114C38.827 27.8224 40 23.9556 40 20C40 14.6957 37.8929 9.60859 34.1421 5.85786C30.3914 2.10714 25.3043 0 20 0V0ZM29.9132 20.2342C29.8591 21.8952 29.3888 23.5161 28.5454 24.948C27.702 26.38 26.5124 27.5772 25.0859 28.4298C23.6594 29.2824 22.0416 29.7631 20.381 29.8278C18.7204 29.8924 17.0701 29.5391 15.5816 28.8L10.5816 29.9895C10.506 30.0068 10.4269 30.001 10.3547 29.9729C10.2824 29.9447 10.2203 29.8955 10.1763 29.8316C10.1463 29.7889 10.1254 29.7404 10.115 29.6892C10.1046 29.638 10.1049 29.5853 10.1158 29.5342L11.1684 24.4237C10.4804 23.0755 10.1099 21.5877 10.0854 20.0743C10.0609 18.5608 10.3831 17.0618 11.0272 15.6921C11.6713 14.3223 12.6203 13.1181 13.8015 12.1716C14.9827 11.2251 16.3648 10.5615 17.8421 10.2314C19.3193 9.90141 20.8525 9.91377 22.3242 10.2676C23.7959 10.6214 25.1671 11.3072 26.3329 12.2727C27.4987 13.2381 28.4282 14.4574 29.0501 15.8374C29.672 17.2174 29.9699 18.7214 29.9211 20.2342H29.9132Z" fill="#E5F6F4"/>
</g>
<defs>
<clipPath id="clip0_9757_3804">
<rect width="40" height="40" fill="white"/>
</clipPath>
</defs>
</svg>
