<svg width="80" height="47" viewBox="0 0 80 47" fill="none" xmlns="http://www.w3.org/2000/svg">
<path d="M2.736 37V11.8H5.616L6.876 16.552V37H2.736ZM20.196 37L5.112 17.308L5.616 11.8L20.7 31.492L20.196 37ZM20.196 37L18.936 32.572V11.8H23.076V37H20.196ZM27.3167 37V19.72H31.2767V37H27.3167ZM29.2967 16.552C28.6247 16.552 28.0607 16.324 27.6047 15.868C27.1727 15.412 26.9567 14.848 26.9567 14.176C26.9567 13.504 27.1727 12.94 27.6047 12.484C28.0607 12.028 28.6247 11.8 29.2967 11.8C29.9927 11.8 30.5567 12.028 30.9887 12.484C31.4207 12.94 31.6367 13.504 31.6367 14.176C31.6367 14.848 31.4207 15.412 30.9887 15.868C30.5567 16.324 29.9927 16.552 29.2967 16.552ZM37.6262 37V12.52H41.5862V37H37.6262ZM33.4862 23.32V19.72H45.7262V23.32H33.4862ZM47.8837 37V19.72H51.8437V37H47.8837ZM51.8437 27.388L50.4757 26.704C50.4757 24.52 50.9557 22.756 51.9157 21.412C52.8997 20.044 54.3757 19.36 56.3437 19.36C57.2077 19.36 57.9877 19.516 58.6837 19.828C59.3797 20.14 60.0277 20.644 60.6277 21.34L58.0357 24.004C57.7237 23.668 57.3757 23.428 56.9917 23.284C56.6077 23.14 56.1637 23.068 55.6597 23.068C54.5557 23.068 53.6437 23.416 52.9237 24.112C52.2037 24.808 51.8437 25.9 51.8437 27.388ZM69.2165 37.36C67.5365 37.36 66.0125 36.964 64.6445 36.172C63.2765 35.356 62.1845 34.264 61.3685 32.896C60.5765 31.528 60.1805 30.004 60.1805 28.324C60.1805 26.644 60.5765 25.132 61.3685 23.788C62.1845 22.444 63.2765 21.376 64.6445 20.584C66.0125 19.768 67.5365 19.36 69.2165 19.36C70.9205 19.36 72.4565 19.756 73.8245 20.548C75.1925 21.34 76.2725 22.42 77.0645 23.788C77.8805 25.132 78.2885 26.644 78.2885 28.324C78.2885 30.004 77.8805 31.528 77.0645 32.896C76.2725 34.264 75.1925 35.356 73.8245 36.172C72.4565 36.964 70.9205 37.36 69.2165 37.36ZM69.2165 33.544C70.2005 33.544 71.0645 33.328 71.8085 32.896C72.5765 32.44 73.1645 31.816 73.5725 31.024C74.0045 30.232 74.2205 29.332 74.2205 28.324C74.2205 27.316 74.0045 26.428 73.5725 25.66C73.1405 24.892 72.5525 24.292 71.8085 23.86C71.0645 23.404 70.2005 23.176 69.2165 23.176C68.2565 23.176 67.3925 23.404 66.6245 23.86C65.8805 24.292 65.2925 24.892 64.8605 25.66C64.4525 26.428 64.2485 27.316 64.2485 28.324C64.2485 29.332 64.4525 30.232 64.8605 31.024C65.2925 31.816 65.8805 32.44 66.6245 32.896C67.3925 33.328 68.2565 33.544 69.2165 33.544Z" fill="white"/>
</svg>
